<svg xmlns="http://www.w3.org/2000/svg" version="1.1" xmlns:xlink="http://www.w3.org/1999/xlink"
  xmlns:svgjs="http://svgjs.dev/svgjs" viewBox="0 0 800 800" id="qqquad">
  <g shape-rendering="crispEdges" stroke-linejoin="round" fill="none" stroke-width="1"
    stroke="#b57549">
    <polygon points="800,100 700,0 700,100"></polygon>
    <polygon points="600,0 700,0 600,100"></polygon>
    <polygon points="700,200 700,100 600,100"></polygon>
    <polygon points="800,100 700,200 800,200"></polygon>
    <polygon points="500,100 600,0 500,0"></polygon>
    <polygon points="500,0 400,100 500,100"></polygon>
    <polygon points="450,100 450,150 500,150"></polygon>
    <polygon points="400,150 400,100 450,100"></polygon>
    <polygon points="450,150 400,200 400,150"></polygon>
    <polygon points="500,150 500,200 450,150"></polygon>
    <polygon points="600,100 500,100 500,200"></polygon>
    <polygon points="600,200 600,300 500,200"></polygon>
    <polygon points="500,200 450,250 450,200"></polygon>
    <polygon points="400,250 450,200 450,250"></polygon>
    <polygon points="450,300 450,250 400,250"></polygon>
    <polygon points="500,250 500,300 450,300"></polygon>
    <polygon points="500,300 450,350 450,300"></polygon>
    <polygon points="400,350 450,300 400,300"></polygon>
    <polygon points="450,350 450,400 400,350"></polygon>
    <polygon points="450,350 500,350 500,400"></polygon>
    <polygon points="600,350 600,300 550,350"></polygon>
    <polygon points="500,350 500,300 550,350"></polygon>
    <polygon points="500,400 500,350 550,400"></polygon>
    <polygon points="550,350 600,400 550,400"></polygon>
    <polygon points="800,300 800,200 700,200"></polygon>
    <polygon points="600,300 600,200 700,200"></polygon>
    <polygon points="600,300 700,400 600,400"></polygon>
    <polygon points="800,300 700,300 800,400"></polygon>
    <polygon points="400,100 300,0 300,100"></polygon>
    <polygon points="200,100 300,0 300,100"></polygon>
    <polygon points="300,100 300,200 200,200"></polygon>
    <polygon points="300,100 300,200 400,200"></polygon>
    <polygon points="200,100 200,0 100,100"></polygon>
    <polygon points="0,0 100,100 0,100"></polygon>
    <polygon points="0,100 100,200 0,200"></polygon>
    <polygon points="200,200 100,100 200,100"></polygon>
    <polygon points="150,200 200,250 200,200"></polygon>
    <polygon points="100,250 150,250 100,200"></polygon>
    <polygon points="150,300 150,250 100,250"></polygon>
    <polygon points="150,250 200,300 200,250"></polygon>
    <polygon points="100,200 100,300 0,300"></polygon>
    <polygon points="100,300 0,300 0,400"></polygon>
    <polygon points="100,400 200,300 200,400"></polygon>
    <polygon points="400,200 400,250 350,250"></polygon>
    <polygon points="350,200 300,250 300,200"></polygon>
    <polygon points="350,250 300,300 300,250"></polygon>
    <polygon points="350,250 400,300 350,300"></polygon>
    <polygon points="300,200 300,250 250,250"></polygon>
    <polygon points="200,200 250,250 250,200"></polygon>
    <polygon points="200,300 250,300 200,250"></polygon>
    <polygon points="250,300 300,250 250,250"></polygon>
    <polygon points="250,350 300,300 300,350"></polygon>
    <polygon points="250,300 250,350 200,350"></polygon>
    <polygon points="250,400 200,350 200,400"></polygon>
    <polygon points="250,400 300,350 300,400"></polygon>
    <polygon points="400,400 300,400 400,300"></polygon>
    <polygon points="400,400 400,500 300,400"></polygon>
    <polygon points="300,450 300,400 250,450"></polygon>
    <polygon points="250,450 250,400 200,450"></polygon>
    <polygon points="200,500 250,450 250,500"></polygon>
    <polygon points="300,450 250,450 300,500"></polygon>
    <polygon points="250,550 300,500 300,550"></polygon>
    <polygon points="250,500 250,550 200,550"></polygon>
    <polygon points="200,550 250,600 250,550"></polygon>
    <polygon points="300,600 250,600 250,550"></polygon>
    <polygon points="400,500 350,500 400,550"></polygon>
    <polygon points="350,500 350,550 300,500"></polygon>
    <polygon points="350,550 350,600 300,550"></polygon>
    <polygon points="400,600 400,550 350,550"></polygon>
    <polygon points="200,450 150,400 150,450"></polygon>
    <polygon points="150,400 100,400 100,450"></polygon>
    <polygon points="150,450 150,500 100,450"></polygon>
    <polygon points="200,450 150,500 150,450"></polygon>
    <polygon points="100,500 100,400 0,500"></polygon>
    <polygon points="100,600 0,600 0,500"></polygon>
    <polygon points="200,600 100,600 200,500"></polygon>
    <polygon points="200,700 100,600 200,600"></polygon>
    <polygon points="0,700 100,700 0,600"></polygon>
    <polygon points="100,700 100,800 0,800"></polygon>
    <polygon points="200,800 200,700 100,800"></polygon>
    <polygon points="300,700 400,600 400,700"></polygon>
    <polygon points="300,600 300,700 200,700"></polygon>
    <polygon points="300,800 200,800 200,700"></polygon>
    <polygon points="300,700 300,800 400,700"></polygon>
    <polygon points="800,500 800,400 700,400"></polygon>
    <polygon points="700,450 650,400 700,400"></polygon>
    <polygon points="650,400 600,400 600,450"></polygon>
    <polygon points="650,500 600,500 650,450"></polygon>
    <polygon points="700,500 700,450 650,450"></polygon>
    <polygon points="700,600 700,500 600,500"></polygon>
    <polygon points="800,500 800,600 700,600"></polygon>
    <polygon points="600,400 600,500 500,500"></polygon>
    <polygon points="500,400 500,450 450,400"></polygon>
    <polygon points="450,400 450,450 400,400"></polygon>
    <polygon points="400,500 450,450 450,500"></polygon>
    <polygon points="500,500 450,450 500,450"></polygon>
    <polygon points="450,500 500,550 500,500"></polygon>
    <polygon points="450,550 400,500 450,500"></polygon>
    <polygon points="400,550 450,600 450,550"></polygon>
    <polygon points="500,550 500,600 450,600"></polygon>
    <polygon points="600,600 500,500 600,500"></polygon>
    <polygon points="550,600 600,650 600,600"></polygon>
    <polygon points="500,650 550,650 550,600"></polygon>
    <polygon points="550,650 550,700 500,650"></polygon>
    <polygon points="600,650 600,700 550,700"></polygon>
    <polygon points="500,700 400,700 400,600"></polygon>
    <polygon points="500,800 500,700 400,700"></polygon>
    <polygon points="600,800 600,700 500,800"></polygon>
    <polygon points="800,600 800,700 700,600"></polygon>
    <polygon points="700,700 700,600 600,600"></polygon>
    <polygon points="600,800 600,700 700,700"></polygon>
    <polygon points="800,700 700,800 700,700"></polygon>
  </g>
  <g fill="hsl(220, 62%, 45%)" stroke-width="3" stroke="hsl(220, 43%, 13%)"></g>
</svg>